<svg width="80" height="80" viewBox="0 0 80 80" fill="none" xmlns="http://www.w3.org/2000/svg">
<path d="M40 6.66667C21.6 6.66667 6.66669 21.6 6.66669 40C6.66669 58.4 21.6 73.3333 40 73.3333C58.4 73.3333 73.3334 58.4 73.3334 40C73.3334 21.6 58.4 6.66667 40 6.66667ZM36.6667 66.4333C23.5 64.8 13.3334 53.6 13.3334 40C13.3334 37.9333 13.6 35.9667 14.0334 34.0333L30 50V53.3333C30 57 33 60 36.6667 60V66.4333ZM59.6667 57.9667C58.8 55.2667 56.3334 53.3333 53.3334 53.3333H50V43.3333C50 41.5 48.5 40 46.6667 40H26.6667V33.3333H33.3334C35.1667 33.3333 36.6667 31.8333 36.6667 30V23.3333H43.3334C47 23.3333 50 20.3333 50 16.6667V15.3C59.7667 19.2667 66.6667 28.8333 66.6667 40C66.6667 46.9333 64 53.2333 59.6667 57.9667Z" fill="#4E5DAA"/>
</svg>
