<svg width="93" height="83" viewBox="0 0 93 83" fill="none" xmlns="http://www.w3.org/2000/svg">
<path d="M60.0625 3.45833H29.0625C23.715 3.45833 19.375 7.33167 19.375 12.1042V70.8958C19.375 75.6683 23.715 79.5417 29.0625 79.5417H60.0625C65.41 79.5417 69.75 75.6683 69.75 70.8958V12.1042C69.75 7.33167 65.41 3.45833 60.0625 3.45833ZM44.5625 76.0833C41.3463 76.0833 38.75 73.7662 38.75 70.8958C38.75 68.0254 41.3463 65.7083 44.5625 65.7083C47.7787 65.7083 50.375 68.0254 50.375 70.8958C50.375 73.7662 47.7787 76.0833 44.5625 76.0833ZM62 62.25H27.125V13.8333H62V62.25Z" fill="white"/>
</svg>
