<svg width="91" height="88" viewBox="0 0 91 88" fill="none" xmlns="http://www.w3.org/2000/svg">
<path d="M75.8333 14.6667H15.1667C10.9958 14.6667 7.58333 17.9667 7.58333 22V66C7.58333 70.0333 10.9958 73.3333 15.1667 73.3333H75.8333C80.0042 73.3333 83.4167 70.0333 83.4167 66V22C83.4167 17.9667 80.0042 14.6667 75.8333 14.6667ZM29.4233 59.5467L24.0771 64.7167C18.1242 59.0333 15.1667 51.5167 15.1667 44C15.1667 36.4833 18.1242 28.9667 24.0392 23.2467L29.3854 28.4167C24.9871 32.7433 22.75 38.3533 22.75 44C22.75 49.6467 24.9871 55.2567 29.4233 59.5467ZM45.5 58.6667C37.1204 58.6667 30.3333 52.1033 30.3333 44C30.3333 35.8967 37.1204 29.3333 45.5 29.3333C53.8796 29.3333 60.6667 35.8967 60.6667 44C60.6667 52.1033 53.8796 58.6667 45.5 58.6667ZM66.9608 64.7533L61.6146 59.5833C66.0129 55.2567 68.25 49.6467 68.25 44C68.25 38.3533 66.0129 32.7433 61.5767 28.4533L66.9229 23.2833C72.8758 28.9667 75.8333 36.4833 75.8333 44C75.8333 51.5167 72.8758 59.0333 66.9608 64.7533ZM45.5 36.6667C41.3292 36.6667 37.9167 39.9667 37.9167 44C37.9167 48.0333 41.3292 51.3333 45.5 51.3333C49.6708 51.3333 53.0833 48.0333 53.0833 44C53.0833 39.9667 49.6708 36.6667 45.5 36.6667Z" fill="white"/>
</svg>
